<svg version="1.1" id="Layer_1" xmlns="http://www.w3.org/2000/svg" xmlns:xlink="http://www.w3.org/1999/xlink" x="0px" y="0px"
	 width="100%" viewBox="0 0 594 100" enable-background="new 0 0 594 100" xml:space="preserve">
<path fill="#020502" opacity="1.000000" stroke="none" 
	d="
M1.000000,7.000000 
	C1.000000,5.003096 1.000000,3.006192 1.000000,1.004644 
	C93.020897,1.000000 185.041794,1.000000 277.542358,1.341291 
	C278.381409,2.279541 278.740814,2.876500 279.100220,3.473456 
	C279.400146,2.648968 279.700073,1.824482 280.000000,0.999998 
	C289.020905,1.000000 298.041779,1.000000 307.976624,1.201892 
	C308.127106,3.306045 307.363617,5.208306 306.442322,7.196230 
	C306.172699,7.612687 306.060944,7.943481 305.506775,8.422811 
	C298.737946,8.725237 292.411438,8.879128 285.741730,9.039121 
	C285.171234,9.072129 284.943939,9.099038 284.419586,8.958363 
	C280.821991,8.667267 277.521484,8.543756 272.905487,8.371017 
	C278.956909,15.858655 284.288605,22.163626 289.256561,28.743227 
	C291.309143,31.461662 293.808594,34.701107 293.981750,37.821407 
	C294.532104,47.739285 294.249146,57.719353 293.843933,67.657265 
	C293.782501,69.163445 291.619110,71.121902 289.969299,71.906319 
	C287.089874,73.275352 283.853821,73.894341 280.767242,74.827667 
	C280.836639,75.293587 280.906036,75.759514 280.975403,76.225433 
	C291.197510,78.628120 301.422943,78.126831 311.748260,75.645302 
	C309.711212,74.240814 307.598450,73.487823 305.442200,72.892181 
	C298.719543,71.035103 297.939941,70.062256 297.876465,62.856102 
	C297.842743,59.028069 298.355927,55.133129 297.820007,51.383045 
	C296.090576,39.281704 300.440979,29.625599 308.994843,21.453150 
	C309.114716,21.338640 309.192871,21.139664 309.330078,21.090393 
	C310.995728,20.492346 312.747894,19.265705 314.324707,19.457693 
	C318.554047,19.972643 321.934723,18.813869 324.418121,15.488326 
	C327.077423,11.927233 326.863556,8.093274 324.912811,4.212432 
	C324.421783,3.235494 324.294464,2.075739 324.000000,0.999998 
	C414.333344,1.000000 504.666656,1.000000 595.000000,1.005043 
	C595.000000,2.673743 595.000000,4.337400 594.694946,6.933235 
	C592.606689,7.594509 590.824585,7.093812 589.040222,7.085705 
	C505.395630,6.705642 421.750885,6.367159 338.106110,6.036441 
	C336.666199,6.030748 335.225708,6.178000 333.605103,6.263389 
	C333.605103,8.671414 333.605103,10.718278 333.605103,13.781404 
	C418.005585,13.781404 502.055450,13.781404 587.026123,13.781404 
	C587.026123,39.679810 587.026123,64.568153 587.026123,89.532959 
	C394.003387,89.532959 200.646698,89.532959 7.833186,89.532959 
	C7.833186,64.696808 7.833186,39.818764 7.833186,13.907566 
	C92.839035,13.907566 176.897018,13.907566 261.012451,13.907566 
	C261.012451,10.775822 261.012451,8.694171 261.012451,6.266968 
	C259.220276,6.266968 257.752319,6.261586 256.284393,6.267738 
	C172.806320,6.617620 89.328247,6.970372 5.850104,7.305053 
	C4.233836,7.311533 2.616720,7.106402 1.000000,7.000000 
M450.540497,26.235031 
	C450.269806,26.420120 450.086487,26.669449 449.277832,26.689053 
	C447.765472,26.209209 446.264862,25.364580 444.738647,25.315535 
	C439.419556,25.144604 434.080383,25.460594 428.770691,25.179247 
	C424.799988,24.968851 423.213654,26.408808 423.751465,30.322163 
	C423.929169,31.615334 423.919403,32.934269 423.995392,34.241425 
	C426.278137,35.396046 428.861481,37.028950 428.913147,38.738331 
	C429.038300,42.881390 427.969879,47.058132 427.419495,51.226189 
	C427.321747,51.966164 427.317719,52.740849 427.414886,53.480522 
	C427.962830,57.651600 428.822632,61.806923 428.978333,65.989853 
	C429.028931,67.349800 427.278534,68.776764 426.351898,70.173080 
	C426.166962,69.539215 425.981995,68.905350 425.797058,68.271484 
	C423.429077,67.504234 421.061096,66.736984 419.043488,66.083267 
	C417.891754,61.856594 416.579987,57.042599 415.107544,51.638878 
	C420.383698,46.878548 420.392578,39.791370 417.881805,32.781116 
	C415.443726,25.973858 409.016022,25.494022 402.879456,25.390993 
	C396.059052,25.276484 389.234009,25.425974 382.414185,25.294088 
	C379.500641,25.237741 377.988556,26.175348 378.214478,29.285446 
	C378.332977,30.917048 378.235382,32.564350 378.235382,34.052528 
	C384.992767,36.556561 386.242523,44.365227 381.468842,52.397854 
	C381.914581,53.025181 382.724060,53.654140 382.809570,54.369621 
	C383.275665,58.270226 383.984039,62.223957 383.691345,66.089920 
	C383.584717,67.497940 380.375305,68.446732 379.609222,70.085464 
	C378.634003,72.171631 378.347656,74.771248 378.516235,77.094963 
	C378.573853,77.889122 380.876587,79.065605 382.196960,79.126610 
	C387.344238,79.364410 392.520142,79.016251 397.663513,79.292923 
	C401.648651,79.507301 404.719788,79.120514 404.046234,73.036667 
	C407.752319,79.852859 413.571106,81.726624 419.856171,79.016663 
	C420.873199,78.578133 421.891754,77.615334 422.859924,77.676834 
	C429.191772,78.079124 435.501953,78.886299 441.836426,79.154785 
	C444.543976,79.269554 447.292938,78.407898 450.578186,78.645500 
	C454.848785,78.862236 459.127350,78.980888 463.387451,79.326851 
	C466.773773,79.601837 468.426880,78.445351 467.958527,74.861633 
	C467.768890,73.410713 467.797791,71.931236 467.732452,70.574196 
	C461.195007,68.312668 459.821533,60.474426 464.534241,53.799458 
	C466.707062,54.838493 468.879883,55.877529 471.098206,56.857857 
	C471.098206,56.857857 471.158386,56.814304 470.214172,57.119728 
	C471.525848,60.845711 472.972595,64.530502 474.123901,68.305397 
	C477.563934,79.584793 477.517334,79.457962 489.182220,79.341667 
	C492.855438,79.305061 493.385895,77.967209 493.467407,74.602699 
	C493.637878,67.563576 494.554230,60.543915 495.086761,53.510391 
	C495.153931,52.623142 494.700195,51.707722 494.581635,50.793190 
	C494.055969,46.737900 493.043304,42.640587 493.331818,38.639610 
	C493.438721,37.156971 496.571808,34.921425 498.430939,34.810650 
	C500.273224,34.700874 503.756226,36.678505 503.894958,38.013397 
	C504.387238,42.749458 503.758392,47.602058 503.459686,54.638084 
	C506.557648,59.901951 505.314911,67.828941 499.226868,70.823814 
	C498.480713,79.222008 498.480713,79.224739 506.435211,79.222748 
	C519.254822,79.219543 532.080078,78.989838 544.891174,79.316780 
	C549.984070,79.446754 555.147827,81.405830 558.823730,76.447426 
	C560.626770,77.414986 561.889221,78.238213 563.258240,78.803360 
	C571.890381,82.366669 582.336182,78.153336 584.830750,70.150864 
	C587.352478,62.061218 585.113892,54.630901 578.579468,49.126831 
	C577.193909,47.959721 575.980774,46.587898 575.052979,44.944981 
	C575.172852,44.821434 575.292664,44.697891 576.160522,44.801643 
	C577.946533,45.262615 579.732544,45.723583 582.200806,46.360638 
	C582.200806,40.342812 581.993469,35.183697 582.260376,30.049221 
	C582.516907,25.111300 580.491577,23.464804 575.901123,25.481411 
	C574.592285,26.056416 573.419800,26.942118 572.284302,27.625490 
	C571.160828,27.029627 570.302185,26.509853 569.393372,26.102051 
	C558.624084,21.269922 547.869934,28.802301 548.553772,40.565155 
	C548.879578,46.169632 552.136292,50.004780 555.563965,53.944153 
	C557.264648,55.898674 558.348145,58.390278 560.100647,61.282066 
	C555.864746,59.628563 552.866699,58.458252 549.056641,56.970978 
	C549.056641,62.160637 549.056641,65.923912 549.056641,69.708107 
	C541.308533,69.186066 536.059631,59.808239 538.067017,53.378208 
	C536.060791,50.058617 533.099915,47.290951 533.620361,45.586189 
	C534.780579,41.786152 536.937500,36.755226 540.045166,35.445587 
	C544.680359,33.492203 542.567078,30.608574 542.853516,28.165461 
	C543.247131,24.808620 540.403320,25.280365 538.310547,25.267883 
	C531.405518,25.226702 524.500122,25.249147 517.594849,25.252047 
	C507.317841,25.256359 497.037872,25.137558 486.766296,25.377491 
	C484.678711,25.426258 481.033569,26.585144 480.865143,27.663218 
	C480.443878,30.359901 478.487518,34.636604 483.992645,35.397148 
	C484.696228,35.494354 485.731201,36.769783 485.765350,37.537090 
	C485.943787,41.546398 485.848602,45.567886 485.848602,49.661629 
	C483.266205,48.601887 481.496307,47.875580 479.793732,47.079483 
	C479.793732,47.079483 479.888275,47.057831 480.768799,46.701878 
	C478.853821,41.542889 476.976807,36.368893 474.955811,31.251755 
	C474.783478,30.815401 473.652222,30.757771 472.627716,30.212244 
	C472.627716,30.212244 472.525818,29.758493 472.525818,29.758493 
	C472.525818,29.758493 472.893066,29.472519 473.872314,29.579756 
	C473.251892,28.230608 472.645691,25.718508 472.008881,25.710720 
	C465.008392,25.625143 458.003174,25.929564 450.540497,26.235031 
M32.998974,76.238571 
	C33.550388,80.914467 36.448196,78.595276 38.784069,78.529823 
	C39.640053,70.210518 37.604961,61.676544 43.389774,54.683231 
	C43.636589,54.384857 43.616776,53.713509 43.491463,53.282722 
	C41.753944,47.309483 46.146652,43.564507 48.494747,39.034584 
	C48.824211,42.704071 49.363365,46.409706 48.658241,49.861130 
	C48.065262,52.763653 48.040001,55.193241 48.484692,58.174812 
	C49.104729,62.332043 49.150505,68.145432 46.740494,70.757294 
	C44.155926,73.558342 43.673092,75.433456 44.155624,78.708344 
	C51.286228,78.708344 58.199677,78.708344 65.905807,78.708344 
	C65.548996,76.380280 65.829155,73.026062 64.844162,72.600571 
	C56.895248,69.166794 60.664902,62.913818 60.746487,57.546799 
	C60.778877,55.415665 60.955914,53.262623 60.727139,51.156483 
	C60.198757,46.292130 57.806999,40.505825 62.523964,37.259373 
	C66.115753,34.787331 65.948753,32.828674 65.090660,29.289656 
	C59.608978,29.289656 54.302326,29.121063 49.022850,29.424831 
	C47.899937,29.489439 46.494656,31.081802 45.877560,32.302883 
	C43.980297,36.057076 42.402191,39.972557 40.700043,43.825352 
	C40.249805,43.776455 39.799568,43.727558 39.349331,43.678661 
	C38.231091,39.937790 37.224968,36.157459 35.930092,32.478764 
	C35.511360,31.289152 34.369709,29.495565 33.499149,29.460564 
	C27.095074,29.203096 20.675886,29.321470 13.754457,29.321470 
	C14.081635,31.999842 13.810558,35.316422 14.629488,35.611893 
	C21.385878,38.049576 18.728155,43.588802 18.963923,47.995358 
	C19.086977,50.295280 17.626242,52.669273 17.696583,54.985035 
	C17.820076,59.050800 18.779572,63.089016 18.945173,67.156837 
	C19.003113,68.580101 18.051592,71.037125 17.049921,71.341827 
	C12.299042,72.787041 14.262184,75.897278 14.360303,78.677551 
	C19.178728,78.677551 23.600370,78.677551 28.495993,78.677551 
	C28.214964,76.386536 28.647121,73.298302 27.635824,72.715714 
	C19.850304,68.230629 23.631041,61.887066 24.447033,55.983517 
	C24.591063,54.941494 24.711340,53.854576 24.577211,52.822895 
	C23.980961,48.236683 23.288183,43.663013 22.630304,39.084812 
	C23.445074,38.931610 24.259844,38.778412 25.074612,38.625210 
	C26.054434,43.135166 27.074131,47.637093 27.984909,52.160942 
	C28.201679,53.237640 27.581881,54.825680 28.147722,55.435860 
	C33.496677,61.203918 32.477806,68.431381 32.998974,76.238571 
M210.703232,69.526436 
	C210.596466,66.389137 210.066254,63.183468 210.557251,60.142693 
	C210.811996,58.565033 212.649261,56.529190 214.181351,56.071255 
	C215.728424,55.608837 219.289337,56.666862 219.369705,57.360043 
	C219.897919,61.915871 221.256775,67.420708 219.294067,70.890167 
	C217.716354,73.679077 217.065033,75.682953 217.206329,78.631241 
	C224.202332,78.631241 230.933899,78.631241 237.795990,78.631241 
	C237.795990,76.492744 237.795990,74.687538 237.795990,72.882332 
	C237.296478,73.075584 236.796951,73.268837 236.297440,73.462090 
	C234.923416,70.708351 233.046768,68.077095 232.336349,65.161659 
	C231.779831,62.877769 232.757721,60.246662 232.887131,57.761135 
	C233.005981,55.478096 233.081024,53.165920 232.858887,50.897575 
	C232.396606,46.176834 230.151688,40.532032 234.568481,37.388916 
	C237.908279,35.012222 238.366638,33.106030 237.503708,29.607313 
	C230.795410,29.607313 224.067551,29.607313 215.579895,29.607313 
	C217.270737,32.720394 218.189835,35.061165 219.665680,36.971897 
	C221.683929,39.584873 221.650177,47.834885 219.267380,50.191181 
	C216.940292,52.492374 213.191360,52.297600 211.365372,49.780613 
	C209.427109,47.108913 210.059204,39.585068 211.935806,36.893921 
	C213.297302,34.941467 213.911850,32.468155 215.087326,29.688231 
	C206.997879,29.688231 200.440750,29.688231 193.676361,29.688231 
	C193.676361,31.868263 193.676361,33.659367 193.676361,34.394623 
	C195.764084,36.585976 198.359314,38.042194 198.558670,39.774197 
	C199.022537,43.803970 198.356857,47.968258 198.091751,52.074352 
	C198.023926,53.124828 197.506287,54.183975 197.602402,55.200645 
	C197.971924,59.108791 198.770676,62.996044 198.848526,66.902267 
	C198.879166,68.439873 197.760727,71.013992 196.609406,71.383553 
	C191.976242,72.870750 193.332932,75.778030 193.928391,78.599426 
	C200.822052,78.599426 207.403976,78.599426 213.526642,78.599426 
	C215.607635,74.619659 213.616425,72.354256 210.703232,69.526436 
M143.691788,30.454567 
	C133.631897,29.872698 123.571999,29.290829 113.233688,28.692854 
	C113.233688,31.683229 113.233688,33.622303 113.233688,35.862850 
	C117.597466,36.173729 118.424759,39.103188 118.423904,42.819103 
	C118.422470,49.118183 117.065353,55.326702 118.160141,61.744793 
	C118.888649,66.015640 119.962936,71.489380 113.311874,72.581314 
	C113.311874,74.806152 113.311874,76.720024 113.311874,78.644424 
	C120.710609,78.644424 127.785439,78.644424 135.452042,78.644424 
	C134.983810,76.226265 135.065567,72.759987 134.130875,72.459938 
	C128.562576,70.672401 129.960495,66.292946 129.836624,62.513542 
	C129.740234,59.572445 130.145203,56.379242 133.964539,56.342518 
	C137.800507,56.305637 138.151169,59.408318 138.149811,62.421951 
	C138.148392,65.585793 137.661606,68.864746 138.342087,71.877670 
	C138.902771,74.360031 140.501129,78.093597 142.273575,78.498680 
	C145.666916,79.274185 149.962997,78.981651 153.039078,77.442604 
	C156.039871,75.941216 155.770279,72.142212 154.138000,68.107292 
	C153.210495,69.546738 152.715866,70.138626 152.422241,70.817451 
	C152.103180,71.555069 151.971039,72.373528 151.757370,73.156731 
	C151.229126,72.823441 150.700882,72.490158 150.172623,72.156868 
	C148.619095,66.046059 151.382858,58.398430 144.069107,54.446579 
	C152.620087,47.236706 152.664520,36.231056 143.691788,30.454567 
M179.331909,78.980568 
	C180.790588,78.903450 182.249283,78.826324 183.839813,78.742233 
	C184.184448,75.381645 185.090546,72.275269 180.643768,71.068649 
	C179.808670,70.842049 178.912491,68.896484 178.944580,67.769783 
	C179.056595,63.837223 179.567474,59.916290 179.917099,55.990078 
	C180.009460,54.952900 180.229645,53.893993 180.113113,52.876915 
	C179.531387,47.799362 178.857040,42.732422 178.215286,37.661747 
	C178.698608,37.540730 179.181946,37.419708 179.665283,37.298687 
	C181.486557,42.695698 181.237793,49.833801 189.772583,49.882439 
	C189.772583,43.131813 189.772583,36.530712 189.772583,29.634830 
	C178.507385,29.634830 167.458878,29.634830 156.230011,29.634830 
	C156.230011,36.562244 156.230011,43.160732 156.230011,49.956390 
	C164.722672,49.781834 164.623016,42.787598 166.704315,37.425606 
	C167.860886,46.866547 165.831436,56.209351 167.166016,65.514740 
	C167.691269,69.177132 166.685867,72.248611 162.221252,72.302216 
	C162.221252,74.696114 162.221252,76.620354 162.221252,78.980118 
	C167.773148,78.980118 173.070114,78.980118 179.331909,78.980568 
M99.780006,49.597942 
	C98.815010,45.569939 97.715874,41.568470 96.912819,37.508434 
	C95.214203,28.920700 95.279915,29.060345 86.363014,29.194452 
	C83.254654,29.241199 82.369476,30.525215 82.090584,33.272068 
	C81.388321,40.188553 81.118164,47.225628 76.913742,53.287788 
	C76.408005,54.016991 77.175919,55.518406 76.884331,56.526150 
	C75.485458,61.360825 75.104019,67.194450 72.057083,70.629417 
	C69.524826,73.484161 68.482506,75.292984 69.203995,78.674484 
	C73.576126,78.674484 77.650368,78.674484 81.784912,78.674484 
	C81.969948,75.566559 83.174988,72.459679 79.012123,71.183952 
	C78.592369,71.055313 78.393936,69.090141 78.637199,68.112762 
	C79.509888,64.606514 82.278641,63.063282 85.434402,63.839275 
	C87.619675,64.376625 90.201553,66.145317 91.089890,68.065353 
	C91.638664,69.251480 89.341881,71.754150 88.322578,73.665771 
	C87.926567,73.505501 87.530548,73.345238 87.134537,73.184967 
	C87.222275,74.956787 87.310020,76.728615 87.406593,78.678757 
	C94.961884,78.678757 102.184471,78.678757 109.631790,78.678757 
	C109.631790,76.468254 109.631790,74.547508 109.631790,72.237503 
	C103.755066,72.465012 103.382698,68.052505 102.001740,64.035843 
	C100.452339,59.529266 103.664612,54.460148 99.780006,49.597942 
M258.144653,62.673534 
	C259.338379,57.423569 259.632538,52.317787 258.484924,46.851311 
	C257.845093,43.803566 258.909912,38.603699 261.065582,37.171291 
	C264.560699,34.848824 263.885498,32.673187 263.627869,29.580053 
	C256.379578,29.580053 249.304596,29.580053 241.464554,29.580053 
	C241.870911,31.937864 241.729950,35.368355 242.634308,35.670551 
	C248.067657,37.486095 247.111374,41.754559 246.958344,45.597233 
	C246.831894,48.772701 245.694443,51.928402 245.729919,55.084713 
	C245.775620,59.149742 246.759644,63.200092 246.883652,67.270653 
	C246.926086,68.663895 245.850357,71.084579 244.845795,71.345985 
	C240.271744,72.536179 241.922195,75.666893 241.948547,78.559799 
	C249.328857,78.559799 256.512817,78.559799 264.426819,78.559799 
	C263.774078,76.072281 263.710205,72.769997 262.683258,72.436890 
	C257.853424,70.870255 258.302704,67.154045 258.144653,62.673534 
M377.350037,53.970539 
	C376.670563,48.253159 376.106598,42.519070 375.282898,36.822548 
	C374.211609,29.413939 369.075378,25.183296 361.480377,25.212242 
	C354.160278,25.240139 346.832642,25.114763 339.525513,25.441860 
	C337.675385,25.524677 334.422363,26.984852 334.362488,27.967438 
	C334.207245,30.514202 331.951752,34.562916 337.289978,35.383842 
	C338.254456,35.532158 339.633942,37.589043 339.611206,38.740894 
	C339.519867,43.370110 338.952942,47.989941 338.561768,52.613239 
	C337.358063,52.679852 337.477264,52.819969 337.505157,52.976376 
	C338.268311,57.257565 339.459473,61.533321 339.529083,65.827011 
	C339.552002,67.239258 336.096954,68.430283 335.261200,70.206573 
	C334.286743,72.277695 334.093048,74.909874 334.298492,77.233353 
	C334.366852,78.006767 336.700226,79.123100 338.019348,79.153236 
	C345.670227,79.328011 353.327728,79.265717 360.982391,79.206467 
	C370.835907,79.130196 375.195282,74.760948 375.641357,64.941231 
	C375.797516,61.504387 376.440155,58.089645 377.350037,53.970539 
z"/>
<path fill="#F7F7F7" opacity="1.000000" stroke="none" 
	d="
M1.000000,7.468657 
	C2.616720,7.106402 4.233836,7.311533 5.850104,7.305053 
	C89.328247,6.970372 172.806320,6.617620 256.284393,6.267738 
	C257.752319,6.261586 259.220276,6.266968 261.012451,6.266968 
	C261.012451,8.694171 261.012451,10.775822 261.012451,13.907566 
	C176.897018,13.907566 92.839035,13.907566 7.833186,13.907566 
	C7.833186,39.818764 7.833186,64.696808 7.833186,89.532959 
	C200.646698,89.532959 394.003387,89.532959 587.026123,89.532959 
	C587.026123,64.568153 587.026123,39.679810 587.026123,13.781404 
	C502.055450,13.781404 418.005585,13.781404 333.605103,13.781404 
	C333.605103,10.718278 333.605103,8.671414 333.605103,6.263389 
	C335.225708,6.178000 336.666199,6.030748 338.106110,6.036441 
	C421.750885,6.367159 505.395630,6.705642 589.040222,7.085705 
	C590.824585,7.093812 592.606689,7.594509 594.694946,7.432706 
	C595.000000,36.687561 595.000000,66.375122 594.531555,96.548141 
	C528.446289,96.771538 462.829102,96.226807 397.212646,96.307182 
	C266.956482,96.466743 136.700729,96.972275 6.444757,97.318153 
	C4.630132,97.322975 2.814931,97.110863 1.000000,97.000000 
	C1.000000,67.312439 1.000000,37.624878 1.000000,7.468657 
z"/>
<path fill="#080808" opacity="1.000000" stroke="none" 
	d="
M1.000000,97.500000 
	C2.814931,97.110863 4.630132,97.322975 6.444757,97.318153 
	C136.700729,96.972275 266.956482,96.466743 397.212646,96.307182 
	C462.829102,96.226807 528.446289,96.771538 594.531555,97.016800 
	C595.000000,98.333336 595.000000,99.666664 595.000000,101.000000 
	C397.000031,101.000000 199.000046,101.000000 1.000036,101.000000 
	C1.000000,100.000000 1.000000,99.000000 1.000000,97.500000 
z"/>
<path fill="#F5F5F4" opacity="1.000000" stroke="none" 
	d="
M286.084961,9.033021 
	C292.411438,8.879128 298.737946,8.725237 305.886627,8.590660 
	C308.554047,8.609977 310.399292,8.609977 312.335419,8.609977 
	C310.355316,8.092308 308.477722,7.601439 306.600128,7.110569 
	C307.363617,5.208306 308.127106,3.306045 308.445312,1.201892 
	C313.022095,1.000000 318.044189,1.000000 323.533142,0.999998 
	C324.294464,2.075739 324.421783,3.235494 324.912811,4.212432 
	C326.863556,8.093274 327.077423,11.927233 324.418121,15.488326 
	C321.934723,18.813869 318.554047,19.972643 314.324707,19.457693 
	C312.747894,19.265705 310.995728,20.492346 309.330078,21.090393 
	C309.192871,21.139664 309.114716,21.338640 308.994843,21.453150 
	C300.440979,29.625599 296.090576,39.281704 297.820007,51.383045 
	C298.355927,55.133129 297.842743,59.028069 297.876465,62.856102 
	C297.939941,70.062256 298.719543,71.035103 305.442200,72.892181 
	C307.598450,73.487823 309.711212,74.240814 311.748260,75.645302 
	C301.422943,78.126831 291.197510,78.628120 280.975403,76.225433 
	C280.906036,75.759514 280.836639,75.293587 280.767242,74.827667 
	C283.853821,73.894341 287.089874,73.275352 289.969299,71.906319 
	C291.619110,71.121902 293.782501,69.163445 293.843933,67.657265 
	C294.249146,57.719353 294.532104,47.739285 293.981750,37.821407 
	C293.808594,34.701107 291.309143,31.461662 289.256561,28.743227 
	C284.288605,22.163626 278.956909,15.858655 272.905487,8.371017 
	C277.521484,8.543756 280.821991,8.667267 284.485931,9.215345 
	C285.115326,9.854736 285.381287,10.069559 285.728729,10.606434 
	C286.190155,11.126607 286.570129,11.324728 286.950104,11.522850 
	C286.697601,10.953612 286.445129,10.384374 286.228455,9.610972 
	C286.264252,9.406810 286.084961,9.033021 286.084961,9.033021 
M297.195831,22.451307 
	C299.550323,14.284807 297.039856,11.833666 287.496582,13.660727 
	C288.704437,16.751318 289.874329,19.744799 291.072662,22.811016 
	C293.166321,22.973080 295.149078,23.126556 297.195831,22.451307 
z"/>
<path fill="#101010" opacity="1.000000" stroke="none" 
	d="
M279.666687,0.999998 
	C279.700073,1.824482 279.400146,2.648968 279.100220,3.473456 
	C278.740814,2.876500 278.381409,2.279541 278.010986,1.341291 
	C278.444458,1.000000 278.888885,1.000000 279.666687,0.999998 
z"/>
<path fill="#08F208" opacity="1.000000" stroke="none" 
	d="
M574.688171,45.310387 
	C575.980774,46.587898 577.193909,47.959721 578.579468,49.126831 
	C585.113892,54.630901 587.352478,62.061218 584.830750,70.150864 
	C582.336182,78.153336 571.890381,82.366669 563.258240,78.803360 
	C561.889221,78.238213 560.626770,77.414986 558.823730,76.447426 
	C555.147827,81.405830 549.984070,79.446754 544.891174,79.316780 
	C532.080078,78.989838 519.254822,79.219543 506.435211,79.222748 
	C498.480713,79.224739 498.480713,79.222008 499.226868,70.823814 
	C505.314911,67.828941 506.557648,59.901951 503.459686,54.638084 
	C503.758392,47.602058 504.387238,42.749458 503.894958,38.013397 
	C503.756226,36.678505 500.273224,34.700874 498.430939,34.810650 
	C496.571808,34.921425 493.438721,37.156971 493.331818,38.639610 
	C493.043304,42.640587 494.055969,46.737900 494.581635,50.793190 
	C494.700195,51.707722 495.153931,52.623142 495.086761,53.510391 
	C494.554230,60.543915 493.637878,67.563576 493.467407,74.602699 
	C493.385895,77.967209 492.855438,79.305061 489.182220,79.341667 
	C477.517334,79.457962 477.563934,79.584793 474.123901,68.305397 
	C472.972595,64.530502 471.525848,60.845711 471.053925,56.974831 
	C474.545563,63.387451 477.197449,69.944969 479.833649,76.463745 
	C483.278503,76.463745 487.014160,76.463745 490.959534,76.463745 
	C490.959534,69.624268 490.961609,63.160404 490.958496,56.696541 
	C490.957275,54.170147 491.031586,51.639889 490.919495,49.118145 
	C490.644897,42.939102 487.499481,36.066223 495.479462,31.979454 
	C496.129517,31.646545 495.918396,29.632185 496.142517,28.170410 
	C491.595062,28.170410 487.475983,28.170410 481.978241,28.170410 
	C483.377441,30.242147 484.272522,31.615967 485.217712,32.954384 
	C486.314789,34.507900 488.253601,35.949512 488.418976,37.582317 
	C488.816315,41.504547 488.417053,45.511040 488.283691,49.481678 
	C488.231445,51.038387 487.869507,52.596458 487.930298,54.142838 
	C488.072601,57.763592 488.385162,61.377659 488.377991,64.994064 
	C487.793152,64.984474 487.459076,64.975243 486.807281,64.811264 
	C484.235199,58.820763 481.980804,52.985016 479.726410,47.149269 
	C481.496307,47.875580 483.266205,48.601887 485.848602,49.661629 
	C485.848602,45.567886 485.943787,41.546398 485.765350,37.537090 
	C485.731201,36.769783 484.696228,35.494354 483.992645,35.397148 
	C478.487518,34.636604 480.443878,30.359901 480.865143,27.663218 
	C481.033569,26.585144 484.678711,25.426258 486.766296,25.377491 
	C497.037872,25.137558 507.317841,25.256359 517.594849,25.252047 
	C524.500122,25.249147 531.405518,25.226702 538.310547,25.267883 
	C540.403320,25.280365 543.247131,24.808620 542.853516,28.165461 
	C542.567078,30.608574 544.680359,33.492203 540.045166,35.445587 
	C536.937500,36.755226 534.780579,41.786152 533.620361,45.586189 
	C533.099915,47.290951 536.060791,50.058617 538.067017,53.378208 
	C536.059631,59.808239 541.308533,69.186066 549.056641,69.708107 
	C549.056641,65.923912 549.056641,62.160637 549.056641,56.970978 
	C552.866699,58.458252 555.864746,59.628563 560.100647,61.282066 
	C558.348145,58.390278 557.264648,55.898674 555.563965,53.944153 
	C552.136292,50.004780 548.879578,46.169632 548.553772,40.565155 
	C547.869934,28.802301 558.624084,21.269922 569.393372,26.102051 
	C570.302185,26.509853 571.160828,27.029627 572.284302,27.625490 
	C573.419800,26.942118 574.592285,26.056416 575.901123,25.481411 
	C580.491577,23.464804 582.516907,25.111300 582.260376,30.049221 
	C581.993469,35.183697 582.200806,40.342812 582.200806,46.360638 
	C579.732544,45.723583 577.946533,45.262615 575.583984,44.517269 
	C574.753540,44.274529 574.499573,44.316166 574.245605,44.357803 
	C574.393127,44.675339 574.540649,44.992867 574.688171,45.310387 
M531.635986,41.767410 
	C533.542053,38.204174 534.225952,33.791080 538.977356,32.245392 
	C539.767578,31.988310 539.908447,29.735083 540.392395,28.274487 
	C535.828308,28.274487 532.075073,28.274487 527.950684,28.274487 
	C528.142883,32.838173 534.785400,36.110462 529.743469,41.598839 
	C527.690857,44.351032 525.939209,47.418465 523.490906,49.756306 
	C521.507996,51.649803 518.838806,51.483738 517.048096,48.844334 
	C514.550171,45.162544 516.283813,35.691059 519.647339,32.908257 
	C520.825439,31.933527 521.361450,30.182640 522.535278,28.205936 
	C514.765991,28.205936 508.328461,28.205936 500.572784,28.205936 
	C501.864288,30.266905 502.737762,31.556559 503.503845,32.907124 
	C504.720917,35.052677 506.773895,37.195145 506.880951,39.415699 
	C507.290375,47.905163 507.327423,56.438374 506.905823,64.925552 
	C506.787506,67.307289 504.636780,69.595215 503.389984,71.910942 
	C502.680237,73.229263 501.913208,74.516754 500.774292,76.516281 
	C508.519196,76.516281 514.922791,76.516281 522.301147,76.516281 
	C521.475891,74.636253 521.242310,72.914444 520.256836,72.068909 
	C516.358765,68.724083 514.215454,59.056213 517.146057,55.122910 
	C517.875122,54.144447 521.535767,53.901760 521.597595,54.084160 
	C523.748840,60.429306 532.175964,65.195503 526.742554,73.550423 
	C526.331970,74.181793 526.842285,75.412056 526.960938,76.785484 
	C532.449707,76.785484 537.750610,76.860733 543.045166,76.711525 
	C543.929016,76.686615 545.323975,75.827492 545.514832,75.099960 
	C545.740906,74.238052 545.226562,72.658676 544.501282,72.152863 
	C538.384399,67.886902 535.310120,62.036194 534.796448,54.688931 
	C534.745544,53.960262 534.489380,52.948845 533.970398,52.597244 
	C530.023987,49.923756 530.675964,46.063042 531.635986,41.767410 
M572.123535,77.071442 
	C577.435242,76.472328 581.190063,73.885094 582.459656,68.514603 
	C583.876221,62.522278 583.257507,56.918690 578.463867,52.440163 
	C576.644531,50.740414 574.443665,49.375259 572.911682,47.461399 
	C571.201416,45.324852 570.009033,43.843151 566.625000,44.438679 
	C563.130676,45.053604 559.839355,42.794079 559.507751,39.007401 
	C559.333923,37.022003 560.749084,34.144539 562.383362,32.917923 
	C565.348450,30.692459 568.434814,32.278984 570.793762,34.713364 
	C572.051086,36.010963 572.830627,37.765560 574.059753,39.098145 
	C575.398132,40.549229 577.007507,41.750381 578.950317,43.457310 
	C579.221497,37.505871 579.446106,32.577961 579.726685,26.420433 
	C576.828369,28.329599 574.755371,29.695133 572.632019,31.093849 
	C572.404419,31.044073 572.029663,31.059641 571.775269,30.892250 
	C564.740295,26.262468 558.151245,26.357450 553.879761,31.170731 
	C549.632568,35.956654 550.275085,43.646465 555.438110,49.810551 
	C557.645935,52.446529 559.855286,55.081280 562.299072,57.997131 
	C562.678467,57.918552 563.474976,57.745026 564.274902,57.589321 
	C568.867920,56.695324 572.223083,58.509815 573.811951,62.748535 
	C575.055298,66.065514 575.545288,69.728546 571.781006,72.070442 
	C568.383118,74.184402 564.122864,72.827972 560.929138,68.800453 
	C560.104065,67.759933 559.496765,66.522858 558.574341,65.588455 
	C556.805664,63.796871 554.882935,62.157436 552.005493,59.521873 
	C552.005493,66.377190 552.005493,71.591103 552.005493,78.241974 
	C554.700928,75.915642 556.718201,74.174614 558.735474,72.433594 
	C558.607361,72.920097 558.479248,73.406609 558.351135,73.893120 
	C562.652710,74.977905 566.954285,76.062691 572.123535,77.071442 
M524.529724,34.211834 
	C518.300415,36.305908 517.104126,39.755035 519.994263,48.175510 
	C526.297058,46.365200 526.735840,40.470684 529.488892,35.692135 
	C527.664734,35.217869 526.437622,34.898815 524.529724,34.211834 
M561.907166,65.717667 
	C562.387878,66.388657 562.743103,67.463974 563.371582,67.659119 
	C565.809387,68.416122 568.334045,68.893135 570.826416,69.474388 
	C570.899963,67.322884 571.584595,64.952263 570.909424,63.069206 
	C569.787781,59.941219 566.840210,59.133381 563.949585,60.529907 
	C562.417725,61.269970 558.590393,61.670090 561.907166,65.717667 
M521.150269,69.302216 
	C522.649109,69.501350 524.148010,69.700493 527.096619,70.092247 
	C524.369141,64.648521 522.280396,60.479595 520.191650,56.310673 
	C519.542175,56.513420 518.892700,56.716167 518.243225,56.918915 
	C518.955383,60.939213 519.667542,64.959511 521.150269,69.302216 
M565.348389,34.901821 
	C564.240540,35.826431 562.240845,36.749783 562.239502,37.675949 
	C562.237671,38.976009 563.579285,41.225712 564.599670,41.378674 
	C566.613647,41.680584 568.801575,40.821571 570.917603,40.442642 
	C570.958557,39.845657 570.999573,39.248672 571.040527,38.651688 
	C569.406677,37.412949 567.772827,36.174213 565.348389,34.901821 
z"/>
<path fill="#00F800" opacity="1.000000" stroke="none" 
	d="
M32.990196,75.777138 
	C32.477806,68.431381 33.496677,61.203918 28.147722,55.435860 
	C27.581881,54.825680 28.201679,53.237640 27.984909,52.160942 
	C27.074131,47.637093 26.054434,43.135166 25.074612,38.625210 
	C24.259844,38.778412 23.445074,38.931610 22.630304,39.084812 
	C23.288183,43.663013 23.980961,48.236683 24.577211,52.822895 
	C24.711340,53.854576 24.591063,54.941494 24.447033,55.983517 
	C23.631041,61.887066 19.850304,68.230629 27.635824,72.715714 
	C28.647121,73.298302 28.214964,76.386536 28.495993,78.677551 
	C23.600370,78.677551 19.178728,78.677551 14.360303,78.677551 
	C14.262184,75.897278 12.299042,72.787041 17.049921,71.341827 
	C18.051592,71.037125 19.003113,68.580101 18.945173,67.156837 
	C18.779572,63.089016 17.820076,59.050800 17.696583,54.985035 
	C17.626242,52.669273 19.086977,50.295280 18.963923,47.995358 
	C18.728155,43.588802 21.385878,38.049576 14.629488,35.611893 
	C13.810558,35.316422 14.081635,31.999842 13.754457,29.321470 
	C20.675886,29.321470 27.095074,29.203096 33.499149,29.460564 
	C34.369709,29.495565 35.511360,31.289152 35.930092,32.478764 
	C37.224968,36.157459 38.231091,39.937790 39.349331,43.678661 
	C39.799568,43.727558 40.249805,43.776455 40.700043,43.825352 
	C42.402191,39.972557 43.980297,36.057076 45.877560,32.302883 
	C46.494656,31.081802 47.899937,29.489439 49.022850,29.424831 
	C54.302326,29.121063 59.608978,29.289656 65.090660,29.289656 
	C65.948753,32.828674 66.115753,34.787331 62.523964,37.259373 
	C57.806999,40.505825 60.198757,46.292130 60.727139,51.156483 
	C60.955914,53.262623 60.778877,55.415665 60.746487,57.546799 
	C60.664902,62.913818 56.895248,69.166794 64.844162,72.600571 
	C65.829155,73.026062 65.548996,76.380280 65.905807,78.708344 
	C58.199677,78.708344 51.286228,78.708344 44.155624,78.708344 
	C43.673092,75.433456 44.155926,73.558342 46.740494,70.757294 
	C49.150505,68.145432 49.104729,62.332043 48.484692,58.174812 
	C48.040001,55.193241 48.065262,52.763653 48.658241,49.861130 
	C49.363365,46.409706 48.824211,42.704071 48.494747,39.034584 
	C46.146652,43.564507 41.753944,47.309483 43.491463,53.282722 
	C43.616776,53.713509 43.636589,54.384857 43.389774,54.683231 
	C37.604961,61.676544 39.640053,70.210518 38.784069,78.529823 
	C36.448196,78.595276 33.550388,80.914467 32.990196,75.777138 
z"/>
<path fill="#00F900" opacity="1.000000" stroke="none" 
	d="
M210.863739,69.919319 
	C213.616425,72.354256 215.607635,74.619659 213.526642,78.599426 
	C207.403976,78.599426 200.822052,78.599426 193.928391,78.599426 
	C193.332932,75.778030 191.976242,72.870750 196.609406,71.383553 
	C197.760727,71.013992 198.879166,68.439873 198.848526,66.902267 
	C198.770676,62.996044 197.971924,59.108791 197.602402,55.200645 
	C197.506287,54.183975 198.023926,53.124828 198.091751,52.074352 
	C198.356857,47.968258 199.022537,43.803970 198.558670,39.774197 
	C198.359314,38.042194 195.764084,36.585976 193.676361,34.394623 
	C193.676361,33.659367 193.676361,31.868263 193.676361,29.688231 
	C200.440750,29.688231 206.997879,29.688231 215.087326,29.688231 
	C213.911850,32.468155 213.297302,34.941467 211.935806,36.893921 
	C210.059204,39.585068 209.427109,47.108913 211.365372,49.780613 
	C213.191360,52.297600 216.940292,52.492374 219.267380,50.191181 
	C221.650177,47.834885 221.683929,39.584873 219.665680,36.971897 
	C218.189835,35.061165 217.270737,32.720394 215.579895,29.607313 
	C224.067551,29.607313 230.795410,29.607313 237.503708,29.607313 
	C238.366638,33.106030 237.908279,35.012222 234.568481,37.388916 
	C230.151688,40.532032 232.396606,46.176834 232.858887,50.897575 
	C233.081024,53.165920 233.005981,55.478096 232.887131,57.761135 
	C232.757721,60.246662 231.779831,62.877769 232.336349,65.161659 
	C233.046768,68.077095 234.923416,70.708351 236.297440,73.462090 
	C236.796951,73.268837 237.296478,73.075584 237.795990,72.882332 
	C237.795990,74.687538 237.795990,76.492744 237.795990,78.631241 
	C230.933899,78.631241 224.202332,78.631241 217.206329,78.631241 
	C217.065033,75.682953 217.716354,73.679077 219.294067,70.890167 
	C221.256775,67.420708 219.897919,61.915871 219.369705,57.360043 
	C219.289337,56.666862 215.728424,55.608837 214.181351,56.071255 
	C212.649261,56.529190 210.811996,58.565033 210.557251,60.142693 
	C210.066254,63.183468 210.596466,66.389137 210.863739,69.919319 
z"/>
<path fill="#00F600" opacity="1.000000" stroke="none" 
	d="
M144.039093,30.641342 
	C152.664520,36.231056 152.620087,47.236706 144.069107,54.446579 
	C151.382858,58.398430 148.619095,66.046059 150.172623,72.156868 
	C150.700882,72.490158 151.229126,72.823441 151.757370,73.156731 
	C151.971039,72.373528 152.103180,71.555069 152.422241,70.817451 
	C152.715866,70.138626 153.210495,69.546738 154.138000,68.107292 
	C155.770279,72.142212 156.039871,75.941216 153.039078,77.442604 
	C149.962997,78.981651 145.666916,79.274185 142.273575,78.498680 
	C140.501129,78.093597 138.902771,74.360031 138.342087,71.877670 
	C137.661606,68.864746 138.148392,65.585793 138.149811,62.421951 
	C138.151169,59.408318 137.800507,56.305637 133.964539,56.342518 
	C130.145203,56.379242 129.740234,59.572445 129.836624,62.513542 
	C129.960495,66.292946 128.562576,70.672401 134.130875,72.459938 
	C135.065567,72.759987 134.983810,76.226265 135.452042,78.644424 
	C127.785439,78.644424 120.710609,78.644424 113.311874,78.644424 
	C113.311874,76.720024 113.311874,74.806152 113.311874,72.581314 
	C119.962936,71.489380 118.888649,66.015640 118.160141,61.744793 
	C117.065353,55.326702 118.422470,49.118183 118.423904,42.819103 
	C118.424759,39.103188 117.597466,36.173729 113.233688,35.862850 
	C113.233688,33.622303 113.233688,31.683229 113.233688,28.692854 
	C123.571999,29.290829 133.631897,29.872698 144.039093,30.641342 
M129.927963,47.900925 
	C131.551285,49.188873 133.174606,50.476822 134.797928,51.764771 
	C136.096207,50.054886 137.924881,48.515186 138.543472,46.587227 
	C139.161392,44.661350 139.170410,42.064053 138.334274,40.283268 
	C137.518906,38.546753 135.424911,36.702351 133.642090,36.404926 
	C132.638763,36.237545 130.575836,38.915890 129.996231,40.648724 
	C129.349365,42.582657 129.842804,44.898014 129.927963,47.900925 
z"/>
<path fill="#09F109" opacity="1.000000" stroke="none" 
	d="
M450.023071,77.989929 
	C447.292938,78.407898 444.543976,79.269554 441.836426,79.154785 
	C435.501953,78.886299 429.191772,78.079124 422.859924,77.676834 
	C421.891754,77.615334 420.873199,78.578133 419.856171,79.016663 
	C413.571106,81.726624 407.752319,79.852859 404.046234,73.036667 
	C404.719788,79.120514 401.648651,79.507301 397.663513,79.292923 
	C392.520142,79.016251 387.344238,79.364410 382.196960,79.126610 
	C380.876587,79.065605 378.573853,77.889122 378.516235,77.094963 
	C378.347656,74.771248 378.634003,72.171631 379.609222,70.085464 
	C380.375305,68.446732 383.584717,67.497940 383.691345,66.089920 
	C383.984039,62.223957 383.275665,58.270226 382.809570,54.369621 
	C382.724060,53.654140 381.914581,53.025181 381.468842,52.397854 
	C386.242523,44.365227 384.992767,36.556561 378.235382,34.052528 
	C378.235382,32.564350 378.332977,30.917048 378.214478,29.285446 
	C377.988556,26.175348 379.500641,25.237741 382.414185,25.294088 
	C389.234009,25.425974 396.059052,25.276484 402.879456,25.390993 
	C409.016022,25.494022 415.443726,25.973858 417.881805,32.781116 
	C420.392578,39.791370 420.383698,46.878548 415.107544,51.638878 
	C416.579987,57.042599 417.891754,61.856594 419.043488,66.083267 
	C421.061096,66.736984 423.429077,67.504234 425.797058,68.271484 
	C425.981995,68.905350 426.166962,69.539215 426.351898,70.173080 
	C427.278534,68.776764 429.028931,67.349800 428.978333,65.989853 
	C428.822632,61.806923 427.962830,57.651600 427.414886,53.480522 
	C427.317719,52.740849 427.321747,51.966164 427.419495,51.226189 
	C427.969879,47.058132 429.038300,42.881390 428.913147,38.738331 
	C428.861481,37.028950 426.278137,35.396046 423.995392,34.241425 
	C423.919403,32.934269 423.929169,31.615334 423.751465,30.322163 
	C423.213654,26.408808 424.799988,24.968851 428.770691,25.179247 
	C434.080383,25.460594 439.419556,25.144604 444.738647,25.315535 
	C446.264862,25.364580 447.765472,26.209209 449.637207,27.265377 
	C450.001678,29.558226 450.006775,31.274746 450.009888,33.231468 
	C450.007935,33.471672 450.007233,33.952095 449.642700,34.043709 
	C442.370056,36.609482 441.132263,43.497597 445.981476,52.480858 
	C440.932129,61.197086 442.270813,67.455040 450.216461,71.223549 
	C450.339325,73.651802 450.181213,75.820862 450.023071,77.989929 
M386.712280,42.533733 
	C386.352264,46.247711 385.709839,49.961655 385.709320,53.675686 
	C385.708771,57.622814 386.762848,61.602108 386.482300,65.504494 
	C386.327728,67.653961 384.409973,69.693520 383.224121,71.746231 
	C382.395416,73.180733 381.459961,74.553574 380.256012,76.452728 
	C388.071838,76.452728 394.458740,76.452728 401.296143,76.452728 
	C400.993042,74.778610 401.104095,72.649910 400.488403,72.413452 
	C393.987061,69.916504 395.704712,64.405907 395.616089,59.635246 
	C395.549042,56.023121 397.255920,53.322792 401.087769,53.219635 
	C405.325195,53.105556 406.716736,56.200974 406.911133,59.855160 
	C407.078888,63.008614 406.929932,66.177841 406.966553,69.339569 
	C407.045898,76.191605 412.257477,79.662888 418.372620,76.698006 
	C419.728180,76.040771 420.475830,74.129700 421.503387,72.795952 
	C421.179626,72.513824 420.855835,72.231705 420.532074,71.949585 
	C419.219788,72.144608 417.907501,72.339638 416.295868,72.579155 
	C415.984039,68.216492 416.473572,63.990860 415.190826,60.397949 
	C414.029388,57.144745 410.934570,54.581791 408.704437,51.730156 
	C408.434418,51.900105 408.965668,51.491013 409.556610,51.205280 
	C416.095856,48.043442 417.835571,44.118015 416.209656,36.133812 
	C415.108307,30.725546 411.676788,28.189850 404.761658,28.077047 
	C396.959106,27.949770 389.152924,28.047728 380.525940,28.047728 
	C381.217041,29.932554 381.370697,32.155643 382.280670,32.527401 
	C386.693359,34.330162 386.550140,38.010784 386.712280,42.533733 
M443.046906,27.988422 
	C437.568726,27.988422 432.090515,27.988422 425.666870,27.988422 
	C426.474701,29.934372 426.687073,32.040836 427.634369,32.451279 
	C431.698608,34.212288 432.133301,37.531761 431.923737,41.133041 
	C431.687988,45.183956 430.842529,49.216797 430.834656,53.258614 
	C430.826996,57.187252 432.085144,61.165123 431.743652,65.029121 
	C431.532593,67.417610 429.382599,69.640015 428.081696,71.924828 
	C427.343658,73.221031 426.562561,74.492714 425.337433,76.555801 
	C433.143341,76.555801 439.548767,76.555801 446.694458,76.555801 
	C446.229553,74.820114 446.287506,72.789673 445.470825,72.336914 
	C437.815887,68.093201 441.555481,61.313995 441.458282,55.406040 
	C441.425385,53.405540 441.497742,51.403507 441.482178,49.402485 
	C441.434692,43.301365 437.883392,36.502590 445.709991,32.059135 
	C447.315308,31.147728 447.881958,27.929312 443.046906,27.988422 
M398.701965,57.459286 
	C398.489349,59.756908 398.144989,62.051594 398.093689,64.352806 
	C398.007935,68.200340 399.840973,70.121185 404.148926,69.735413 
	C404.148926,66.230942 404.277100,62.914169 404.112732,59.611954 
	C403.950012,56.342827 402.397278,55.000874 398.701965,57.459286 
z"/>
<path fill="#00F400" opacity="1.000000" stroke="none" 
	d="
M178.849503,78.980347 
	C173.070114,78.980118 167.773148,78.980118 162.221252,78.980118 
	C162.221252,76.620354 162.221252,74.696114 162.221252,72.302216 
	C166.685867,72.248611 167.691269,69.177132 167.166016,65.514740 
	C165.831436,56.209351 167.860886,46.866547 166.704315,37.425606 
	C164.623016,42.787598 164.722672,49.781834 156.230011,49.956390 
	C156.230011,43.160732 156.230011,36.562244 156.230011,29.634830 
	C167.458878,29.634830 178.507385,29.634830 189.772583,29.634830 
	C189.772583,36.530712 189.772583,43.131813 189.772583,49.882439 
	C181.237793,49.833801 181.486557,42.695698 179.665283,37.298687 
	C179.181946,37.419708 178.698608,37.540730 178.215286,37.661747 
	C178.857040,42.732422 179.531387,47.799362 180.113113,52.876915 
	C180.229645,53.893993 180.009460,54.952900 179.917099,55.990078 
	C179.567474,59.916290 179.056595,63.837223 178.944580,67.769783 
	C178.912491,68.896484 179.808670,70.842049 180.643768,71.068649 
	C185.090546,72.275269 184.184448,75.381645 183.839813,78.742233 
	C182.249283,78.826324 180.790588,78.903450 178.849503,78.980347 
z"/>
<path fill="#00F700" opacity="1.000000" stroke="none" 
	d="
M99.911560,49.977356 
	C103.664612,54.460148 100.452339,59.529266 102.001740,64.035843 
	C103.382698,68.052505 103.755066,72.465012 109.631790,72.237503 
	C109.631790,74.547508 109.631790,76.468254 109.631790,78.678757 
	C102.184471,78.678757 94.961884,78.678757 87.406593,78.678757 
	C87.310020,76.728615 87.222275,74.956787 87.134537,73.184967 
	C87.530548,73.345238 87.926567,73.505501 88.322578,73.665771 
	C89.341881,71.754150 91.638664,69.251480 91.089890,68.065353 
	C90.201553,66.145317 87.619675,64.376625 85.434402,63.839275 
	C82.278641,63.063282 79.509888,64.606514 78.637199,68.112762 
	C78.393936,69.090141 78.592369,71.055313 79.012123,71.183952 
	C83.174988,72.459679 81.969948,75.566559 81.784912,78.674484 
	C77.650368,78.674484 73.576126,78.674484 69.203995,78.674484 
	C68.482506,75.292984 69.524826,73.484161 72.057083,70.629417 
	C75.104019,67.194450 75.485458,61.360825 76.884331,56.526150 
	C77.175919,55.518406 76.408005,54.016991 76.913742,53.287788 
	C81.118164,47.225628 81.388321,40.188553 82.090584,33.272068 
	C82.369476,30.525215 83.254654,29.241199 86.363014,29.194452 
	C95.279915,29.060345 95.214203,28.920700 96.912819,37.508434 
	C97.715874,41.568470 98.815010,45.569939 99.911560,49.977356 
M85.484100,40.800957 
	C84.374748,45.139160 83.100044,49.445381 82.251167,53.833965 
	C81.976486,55.254044 82.448166,57.158775 83.292542,58.324600 
	C83.781830,59.000149 86.364433,59.201591 86.827751,58.641888 
	C87.864502,57.389458 88.835281,55.439060 88.636963,53.930111 
	C88.076706,49.667248 86.913902,45.483574 85.484100,40.800957 
z"/>
<path fill="#F6FFF6" opacity="1.000000" stroke="none" 
	d="
M479.760071,47.114376 
	C481.980804,52.985016 484.235199,58.820763 486.905701,65.073792 
	C487.757477,65.325531 488.193115,65.159988 488.628754,64.994431 
	C488.385162,61.377659 488.072601,57.763592 487.930298,54.142838 
	C487.869507,52.596458 488.231445,51.038387 488.283691,49.481678 
	C488.417053,45.511040 488.816315,41.504547 488.418976,37.582317 
	C488.253601,35.949512 486.314789,34.507900 485.217712,32.954384 
	C484.272522,31.615967 483.377441,30.242147 481.978241,28.170410 
	C487.475983,28.170410 491.595062,28.170410 496.142517,28.170410 
	C495.918396,29.632185 496.129517,31.646545 495.479462,31.979454 
	C487.499481,36.066223 490.644897,42.939102 490.919495,49.118145 
	C491.031586,51.639889 490.957275,54.170147 490.958496,56.696541 
	C490.961609,63.160404 490.959534,69.624268 490.959534,76.463745 
	C487.014160,76.463745 483.278503,76.463745 479.833649,76.463745 
	C477.197449,69.944969 474.545563,63.387451 471.526031,56.822117 
	C471.158386,56.814304 471.098206,56.857857 471.302551,56.551708 
	C470.195129,54.408413 467.557434,52.356052 467.814331,50.773499 
	C468.665192,45.531311 465.893860,41.848312 463.623138,37.885960 
	C462.956329,36.722389 461.677948,35.909328 460.679871,34.935608 
	C459.852325,36.076580 459.024780,37.217548 458.483978,37.963142 
	C456.436493,35.069824 454.314484,32.071186 451.448364,28.021027 
	C457.281311,28.021027 461.415710,27.852058 465.527435,28.084280 
	C468.000885,28.223974 470.439056,28.988686 472.893066,29.472519 
	C472.893066,29.472519 472.525818,29.758493 472.525818,29.758493 
	C472.525818,29.758493 472.627716,30.212244 472.609375,30.766838 
	C473.037323,33.089066 473.190308,35.004124 473.989532,36.594391 
	C475.785492,40.167789 477.902161,43.580006 479.888275,47.057835 
	C479.888275,47.057831 479.793732,47.079483 479.760071,47.114376 
z"/>
<path fill="#00F800" opacity="1.000000" stroke="none" 
	d="
M258.133606,63.103790 
	C258.302704,67.154045 257.853424,70.870255 262.683258,72.436890 
	C263.710205,72.769997 263.774078,76.072281 264.426819,78.559799 
	C256.512817,78.559799 249.328857,78.559799 241.948547,78.559799 
	C241.922195,75.666893 240.271744,72.536179 244.845795,71.345985 
	C245.850357,71.084579 246.926086,68.663895 246.883652,67.270653 
	C246.759644,63.200092 245.775620,59.149742 245.729919,55.084713 
	C245.694443,51.928402 246.831894,48.772701 246.958344,45.597233 
	C247.111374,41.754559 248.067657,37.486095 242.634308,35.670551 
	C241.729950,35.368355 241.870911,31.937864 241.464554,29.580053 
	C249.304596,29.580053 256.379578,29.580053 263.627869,29.580053 
	C263.885498,32.673187 264.560699,34.848824 261.065582,37.171291 
	C258.909912,38.603699 257.845093,43.803566 258.484924,46.851311 
	C259.632538,52.317787 259.338379,57.423569 258.133606,63.103790 
z"/>
<path fill="#05EF05" opacity="1.000000" stroke="none" 
	d="
M377.105347,54.317673 
	C376.440155,58.089645 375.797516,61.504387 375.641357,64.941231 
	C375.195282,74.760948 370.835907,79.130196 360.982391,79.206467 
	C353.327728,79.265717 345.670227,79.328011 338.019348,79.153236 
	C336.700226,79.123100 334.366852,78.006767 334.298492,77.233353 
	C334.093048,74.909874 334.286743,72.277695 335.261200,70.206573 
	C336.096954,68.430283 339.552002,67.239258 339.529083,65.827011 
	C339.459473,61.533321 338.268311,57.257565 337.505157,52.976376 
	C337.477264,52.819969 337.358063,52.679852 338.561768,52.613239 
	C338.952942,47.989941 339.519867,43.370110 339.611206,38.740894 
	C339.633942,37.589043 338.254456,35.532158 337.289978,35.383842 
	C331.951752,34.562916 334.207245,30.514202 334.362488,27.967438 
	C334.422363,26.984852 337.675385,25.524677 339.525513,25.441860 
	C346.832642,25.114763 354.160278,25.240139 361.480377,25.212242 
	C369.075378,25.183296 374.211609,29.413939 375.282898,36.822548 
	C376.106598,42.519070 376.670563,48.253159 377.105347,54.317673 
M342.270660,64.255287 
	C342.252716,67.507172 342.016144,70.479950 338.364014,72.145103 
	C337.365784,72.600243 337.159760,74.792915 336.364227,76.741783 
	C345.992584,76.741783 354.503784,77.226921 362.907440,76.488220 
	C366.001068,76.216293 370.601501,73.639412 371.445709,71.095467 
	C373.475952,64.977295 374.127136,58.280899 374.485840,51.770992 
	C374.724976,47.431255 373.362732,43.023624 372.970184,38.623817 
	C372.426941,32.534454 369.163300,28.347589 363.653107,28.164177 
	C354.859863,27.871485 346.049744,28.085907 336.043762,28.085907 
	C337.097198,30.135323 337.462921,32.217033 338.572479,32.749889 
	C341.973511,34.383270 342.264740,37.197052 342.277283,40.254585 
	C342.308838,47.947899 342.275269,55.641476 342.270660,64.255287 
z"/>
<path fill="#08F208" opacity="1.000000" stroke="none" 
	d="
M473.382690,29.526136 
	C470.439056,28.988686 468.000885,28.223974 465.527435,28.084280 
	C461.415710,27.852058 457.281311,28.021027 451.448364,28.021027 
	C454.314484,32.071186 456.436493,35.069824 458.483978,37.963142 
	C459.024780,37.217548 459.852325,36.076580 460.679871,34.935608 
	C461.677948,35.909328 462.956329,36.722389 463.623138,37.885960 
	C465.893860,41.848312 468.665192,45.531311 467.814331,50.773499 
	C467.557434,52.356052 470.195129,54.408413 471.279785,56.581062 
	C468.879883,55.877529 466.707062,54.838493 464.534119,53.799706 
	C459.821533,60.474426 461.195007,68.312668 467.732452,70.574196 
	C467.797791,71.931236 467.768890,73.410713 467.958527,74.861633 
	C468.426880,78.445351 466.773773,79.601837 463.387451,79.326851 
	C459.127350,78.980888 454.848785,78.862236 450.300659,78.317719 
	C450.181213,75.820862 450.339325,73.651802 450.453857,70.882034 
	C451.984741,70.217781 453.559265,70.154243 455.447021,70.433502 
	C454.619446,72.456436 453.478607,74.136566 451.755615,76.673965 
	C457.222504,76.673965 460.997498,76.673965 465.407593,76.673965 
	C465.015839,74.973000 465.073456,72.715759 464.336304,72.416580 
	C458.088867,69.880859 459.842773,64.533142 459.835205,59.973026 
	C459.830933,57.395512 461.301331,54.771988 461.096710,52.251240 
	C460.910828,49.960964 459.357147,47.781715 458.183044,45.030045 
	C457.726349,48.280937 457.017334,50.998466 457.038788,53.710220 
	C457.072632,57.991768 457.819366,62.271950 457.771149,66.547157 
	C457.757568,67.755219 456.025940,68.943924 454.807495,69.727188 
	C454.165283,64.029091 453.746826,58.747929 453.475037,53.459213 
	C453.423157,52.448730 453.789825,51.332424 454.235565,50.394276 
	C457.295227,43.954498 455.385956,36.410118 450.007233,33.952095 
	C450.007233,33.952095 450.007935,33.471672 450.283905,32.959522 
	C450.706329,30.340979 450.852783,28.234585 450.999207,26.128193 
	C458.003174,25.929564 465.008392,25.625143 472.008881,25.710720 
	C472.645691,25.718508 473.251892,28.230608 473.382690,29.526136 
M464.639679,44.273159 
	C464.272400,43.793896 463.905121,43.314629 463.172394,42.358517 
	C463.028625,44.867809 462.920380,46.757111 462.797668,48.898312 
	C466.802490,48.943214 465.927887,46.937775 464.639679,44.273159 
z"/>
<path fill="#08F208" opacity="1.000000" stroke="none" 
	d="
M480.328552,46.879860 
	C477.902161,43.580006 475.785492,40.167789 473.989532,36.594391 
	C473.190308,35.004124 473.037323,33.089066 472.778717,30.922817 
	C473.652222,30.757771 474.783478,30.815401 474.955811,31.251755 
	C476.976807,36.368893 478.853821,41.542889 480.328552,46.879860 
z"/>
<path fill="#101010" opacity="1.000000" stroke="none" 
	d="
M306.442322,7.196231 
	C308.477722,7.601439 310.355316,8.092308 312.335419,8.609977 
	C310.399292,8.609977 308.554047,8.609977 306.328979,8.442127 
	C306.060944,7.943481 306.172699,7.612687 306.442322,7.196231 
z"/>
<path fill="#09F109" opacity="1.000000" stroke="none" 
	d="
M450.769836,26.181612 
	C450.852783,28.234585 450.706329,30.340979 450.285858,32.719322 
	C450.006775,31.274746 450.001678,29.558226 449.993530,27.412361 
	C450.086487,26.669449 450.269806,26.420120 450.769836,26.181612 
z"/>
<path fill="#101010" opacity="1.000000" stroke="none" 
	d="
M285.741730,9.039121 
	C286.084961,9.033021 286.264252,9.406810 286.093994,9.730485 
	C285.923737,10.054160 285.647278,10.284382 285.647278,10.284382 
	C285.381287,10.069559 285.115326,9.854736 284.782990,9.382930 
	C284.943939,9.099038 285.171234,9.072129 285.741730,9.039121 
z"/>
<path fill="#0A0A0A" opacity="1.000000" stroke="none" 
	d="
M297.163818,22.865669 
	C295.149078,23.126556 293.166321,22.973080 291.072662,22.811016 
	C289.874329,19.744799 288.704437,16.751318 287.496582,13.660727 
	C297.039856,11.833666 299.550323,14.284807 297.163818,22.865669 
z"/>
<path fill="#101010" opacity="1.000000" stroke="none" 
	d="
M286.058167,9.934648 
	C286.445129,10.384374 286.697601,10.953612 286.950104,11.522850 
	C286.570129,11.324728 286.190155,11.126607 285.728729,10.606434 
	C285.647278,10.284382 285.923737,10.054160 286.058167,9.934648 
z"/>
<path fill="#F7FFF7" opacity="1.000000" stroke="none" 
	d="
M531.101929,42.232731 
	C530.675964,46.063042 530.023987,49.923756 533.970398,52.597244 
	C534.489380,52.948845 534.745544,53.960262 534.796448,54.688931 
	C535.310120,62.036194 538.384399,67.886902 544.501282,72.152863 
	C545.226562,72.658676 545.740906,74.238052 545.514832,75.099960 
	C545.323975,75.827492 543.929016,76.686615 543.045166,76.711525 
	C537.750610,76.860733 532.449707,76.785484 526.960938,76.785484 
	C526.842285,75.412056 526.331970,74.181793 526.742554,73.550423 
	C532.175964,65.195503 523.748840,60.429306 521.597595,54.084160 
	C521.535767,53.901760 517.875122,54.144447 517.146057,55.122910 
	C514.215454,59.056213 516.358765,68.724083 520.256836,72.068909 
	C521.242310,72.914444 521.475891,74.636253 522.301147,76.516281 
	C514.922791,76.516281 508.519196,76.516281 500.774292,76.516281 
	C501.913208,74.516754 502.680237,73.229263 503.389984,71.910942 
	C504.636780,69.595215 506.787506,67.307289 506.905823,64.925552 
	C507.327423,56.438374 507.290375,47.905163 506.880951,39.415699 
	C506.773895,37.195145 504.720917,35.052677 503.503845,32.907124 
	C502.737762,31.556559 501.864288,30.266905 500.572784,28.205936 
	C508.328461,28.205936 514.765991,28.205936 522.535278,28.205936 
	C521.361450,30.182640 520.825439,31.933527 519.647339,32.908257 
	C516.283813,35.691059 514.550171,45.162544 517.048096,48.844334 
	C518.838806,51.483738 521.507996,51.649803 523.490906,49.756306 
	C525.939209,47.418465 527.690857,44.351032 530.155945,41.466965 
	C530.746277,41.634308 530.924072,41.933521 531.101929,42.232731 
z"/>
<path fill="#F7FFF7" opacity="1.000000" stroke="none" 
	d="
M571.689697,77.109459 
	C566.954285,76.062691 562.652710,74.977905 558.351135,73.893120 
	C558.479248,73.406609 558.607361,72.920097 558.735474,72.433594 
	C556.718201,74.174614 554.700928,75.915642 552.005493,78.241974 
	C552.005493,71.591103 552.005493,66.377190 552.005493,59.521873 
	C554.882935,62.157436 556.805664,63.796871 558.574341,65.588455 
	C559.496765,66.522858 560.104065,67.759933 560.929138,68.800453 
	C564.122864,72.827972 568.383118,74.184402 571.781006,72.070442 
	C575.545288,69.728546 575.055298,66.065514 573.811951,62.748535 
	C572.223083,58.509815 568.867920,56.695324 564.274902,57.589321 
	C563.474976,57.745026 562.678467,57.918552 562.299072,57.997131 
	C559.855286,55.081280 557.645935,52.446529 555.438110,49.810551 
	C550.275085,43.646465 549.632568,35.956654 553.879761,31.170731 
	C558.151245,26.357450 564.740295,26.262468 571.775269,30.892250 
	C572.029663,31.059641 572.404419,31.044073 572.632019,31.093849 
	C574.755371,29.695133 576.828369,28.329599 579.726685,26.420433 
	C579.446106,32.577961 579.221497,37.505871 578.950317,43.457310 
	C577.007507,41.750381 575.398132,40.549229 574.059753,39.098145 
	C572.830627,37.765560 572.051086,36.010963 570.793762,34.713364 
	C568.434814,32.278984 565.348450,30.692459 562.383362,32.917923 
	C560.749084,34.144539 559.333923,37.022003 559.507751,39.007401 
	C559.839355,42.794079 563.130676,45.053604 566.625000,44.438679 
	C570.009033,43.843151 571.201416,45.324852 572.911682,47.461399 
	C574.443665,49.375259 576.644531,50.740414 578.463867,52.440163 
	C583.257507,56.918690 583.876221,62.522278 582.459656,68.514603 
	C581.190063,73.885094 577.435242,76.472328 571.689697,77.109459 
z"/>
<path fill="#000800" opacity="1.000000" stroke="none" 
	d="
M524.870117,34.395798 
	C526.437622,34.898815 527.664734,35.217869 529.488892,35.692135 
	C526.735840,40.470684 526.297058,46.365200 519.994263,48.175510 
	C517.104126,39.755035 518.300415,36.305908 524.870117,34.395798 
z"/>
<path fill="#000C00" opacity="1.000000" stroke="none" 
	d="
M561.701050,65.424133 
	C558.590393,61.670090 562.417725,61.269970 563.949585,60.529907 
	C566.840210,59.133381 569.787781,59.941219 570.909424,63.069206 
	C571.584595,64.952263 570.899963,67.322884 570.826416,69.474396 
	C568.334045,68.893135 565.809387,68.416122 563.371582,67.659119 
	C562.743103,67.463974 562.387878,66.388657 561.701050,65.424133 
z"/>
<path fill="#F2FFF2" opacity="1.000000" stroke="none" 
	d="
M531.368958,42.000069 
	C530.924072,41.933521 530.746277,41.634308 530.355957,41.180668 
	C534.785400,36.110462 528.142883,32.838173 527.950684,28.274487 
	C532.075073,28.274487 535.828308,28.274487 540.392395,28.274487 
	C539.908447,29.735083 539.767578,31.988310 538.977356,32.245392 
	C534.225952,33.791080 533.542053,38.204174 531.368958,42.000069 
z"/>
<path fill="#000900" opacity="1.000000" stroke="none" 
	d="
M520.765015,69.141006 
	C519.667542,64.959511 518.955383,60.939213 518.243225,56.918915 
	C518.892700,56.716167 519.542175,56.513420 520.191650,56.310673 
	C522.280396,60.479595 524.369141,64.648521 527.096619,70.092247 
	C524.148010,69.700493 522.649109,69.501350 520.765015,69.141006 
z"/>
<path fill="#000D00" opacity="1.000000" stroke="none" 
	d="
M565.743652,34.918648 
	C567.772827,36.174213 569.406677,37.412949 571.040527,38.651688 
	C570.999573,39.248672 570.958557,39.845657 570.917603,40.442642 
	C568.801575,40.821571 566.613647,41.680584 564.599670,41.378674 
	C563.579285,41.225712 562.237671,38.976009 562.239502,37.675949 
	C562.240845,36.749783 564.240540,35.826431 565.743652,34.918648 
z"/>
<path fill="#09F109" opacity="1.000000" stroke="none" 
	d="
M488.377991,64.994072 
	C488.193115,65.159988 487.757477,65.325531 487.223419,65.228546 
	C487.459076,64.975243 487.793152,64.984474 488.377991,64.994072 
z"/>
<path fill="#020502" opacity="1.000000" stroke="none" 
	d="
M574.870605,45.127686 
	C574.540649,44.992867 574.393127,44.675339 574.245605,44.357803 
	C574.499573,44.316166 574.753540,44.274529 575.209961,44.403622 
	C575.292664,44.697891 575.172852,44.821434 574.870605,45.127686 
z"/>
<path fill="#000D00" opacity="1.000000" stroke="none" 
	d="
M129.883942,47.474140 
	C129.842804,44.898014 129.349365,42.582657 129.996231,40.648724 
	C130.575836,38.915890 132.638763,36.237545 133.642090,36.404926 
	C135.424911,36.702351 137.518906,38.546753 138.334274,40.283268 
	C139.170410,42.064053 139.161392,44.661350 138.543472,46.587227 
	C137.924881,48.515186 136.096207,50.054886 134.797928,51.764771 
	C133.174606,50.476822 131.551285,49.188873 129.883942,47.474140 
z"/>
<path fill="#F6FFF6" opacity="1.000000" stroke="none" 
	d="
M386.713715,42.105721 
	C386.550140,38.010784 386.693359,34.330162 382.280670,32.527401 
	C381.370697,32.155643 381.217041,29.932554 380.525940,28.047728 
	C389.152924,28.047728 396.959106,27.949770 404.761658,28.077047 
	C411.676788,28.189850 415.108307,30.725546 416.209656,36.133812 
	C417.835571,44.118015 416.095856,48.043442 409.556610,51.205280 
	C408.965668,51.491013 408.434418,51.900105 408.704437,51.730156 
	C410.934570,54.581791 414.029388,57.144745 415.190826,60.397949 
	C416.473572,63.990860 415.984039,68.216492 416.295868,72.579155 
	C417.907501,72.339638 419.219788,72.144608 420.532074,71.949585 
	C420.855835,72.231705 421.179626,72.513824 421.503387,72.795952 
	C420.475830,74.129700 419.728180,76.040771 418.372620,76.698006 
	C412.257477,79.662888 407.045898,76.191605 406.966553,69.339569 
	C406.929932,66.177841 407.078888,63.008614 406.911133,59.855160 
	C406.716736,56.200974 405.325195,53.105556 401.087769,53.219635 
	C397.255920,53.322792 395.549042,56.023121 395.616089,59.635246 
	C395.704712,64.405907 393.987061,69.916504 400.488403,72.413452 
	C401.104095,72.649910 400.993042,74.778610 401.296143,76.452728 
	C394.458740,76.452728 388.071838,76.452728 380.256012,76.452728 
	C381.459961,74.553574 382.395416,73.180733 383.224121,71.746231 
	C384.409973,69.693520 386.327728,67.653961 386.482300,65.504494 
	C386.762848,61.602108 385.708771,57.622814 385.709320,53.675686 
	C385.709839,49.961655 386.352264,46.247711 386.713715,42.105721 
M406.830414,36.374542 
	C405.535706,33.514572 403.481903,31.745356 400.203552,32.502636 
	C396.725861,33.305962 395.618896,35.993538 395.584625,39.261024 
	C395.563782,41.248112 395.485382,43.250206 395.682587,45.220558 
	C396.038666,48.777821 397.758942,51.235058 401.684631,51.056080 
	C405.300964,50.891201 406.933563,48.522190 407.099792,45.152306 
	C407.230072,42.511631 407.052032,39.855743 406.830414,36.374542 
z"/>
<path fill="#F7FFF7" opacity="1.000000" stroke="none" 
	d="
M443.487579,27.988873 
	C447.881958,27.929312 447.315308,31.147728 445.709991,32.059135 
	C437.883392,36.502590 441.434692,43.301365 441.482178,49.402485 
	C441.497742,51.403507 441.425385,53.405540 441.458282,55.406040 
	C441.555481,61.313995 437.815887,68.093201 445.470825,72.336914 
	C446.287506,72.789673 446.229553,74.820114 446.694458,76.555801 
	C439.548767,76.555801 433.143341,76.555801 425.337433,76.555801 
	C426.562561,74.492714 427.343658,73.221031 428.081696,71.924828 
	C429.382599,69.640015 431.532593,67.417610 431.743652,65.029121 
	C432.085144,61.165123 430.826996,57.187252 430.834656,53.258614 
	C430.842529,49.216797 431.687988,45.183956 431.923737,41.133041 
	C432.133301,37.531761 431.698608,34.212288 427.634369,32.451279 
	C426.687073,32.040836 426.474701,29.934372 425.666870,27.988422 
	C432.090515,27.988422 437.568726,27.988422 443.487579,27.988873 
z"/>
<path fill="#000700" opacity="1.000000" stroke="none" 
	d="
M455.133759,70.090698 
	C453.559265,70.154243 451.984741,70.217781 450.172852,70.622849 
	C442.270813,67.455040 440.932129,61.197086 445.981476,52.480858 
	C441.132263,43.497597 442.370056,36.609482 449.642700,34.043709 
	C455.385956,36.410118 457.295227,43.954498 454.235565,50.394276 
	C453.789825,51.332424 453.423157,52.448730 453.475037,53.459213 
	C453.746826,58.747929 454.165283,64.029091 454.774414,69.667816 
	C455.016083,70.022758 455.133759,70.090698 455.133759,70.090698 
z"/>
<path fill="#000900" opacity="1.000000" stroke="none" 
	d="
M398.945435,57.114876 
	C402.397278,55.000874 403.950012,56.342827 404.112732,59.611954 
	C404.277100,62.914169 404.148926,66.230942 404.148926,69.735413 
	C399.840973,70.121185 398.007935,68.200340 398.093689,64.352806 
	C398.144989,62.051594 398.489349,59.756908 398.945435,57.114876 
z"/>
<path fill="#001000" opacity="1.000000" stroke="none" 
	d="
M85.736313,41.034828 
	C86.913902,45.483574 88.076706,49.667248 88.636963,53.930111 
	C88.835281,55.439060 87.864502,57.389458 86.827751,58.641888 
	C86.364433,59.201591 83.781830,59.000149 83.292542,58.324600 
	C82.448166,57.158775 81.976486,55.254044 82.251167,53.833965 
	C83.100044,49.445381 84.374748,45.139160 85.736313,41.034828 
z"/>
<path fill="#F7FFF7" opacity="1.000000" stroke="none" 
	d="
M342.269226,63.795120 
	C342.275269,55.641476 342.308838,47.947899 342.277283,40.254585 
	C342.264740,37.197052 341.973511,34.383270 338.572479,32.749889 
	C337.462921,32.217033 337.097198,30.135323 336.043762,28.085907 
	C346.049744,28.085907 354.859863,27.871485 363.653107,28.164177 
	C369.163300,28.347589 372.426941,32.534454 372.970184,38.623817 
	C373.362732,43.023624 374.724976,47.431255 374.485840,51.770992 
	C374.127136,58.280899 373.475952,64.977295 371.445709,71.095467 
	C370.601501,73.639412 366.001068,76.216293 362.907440,76.488220 
	C354.503784,77.226921 345.992584,76.741783 336.364227,76.741783 
	C337.159760,74.792915 337.365784,72.600243 338.364014,72.145103 
	C342.016144,70.479950 342.252716,67.507172 342.269226,63.795120 
M361.379395,33.164246 
	C355.610840,31.654161 351.554840,33.186520 351.518829,37.872734 
	C351.444916,47.485493 351.850861,57.096279 351.484222,66.727119 
	C351.362579,69.922646 353.701874,72.140457 357.358795,72.248253 
	C361.715149,72.376648 363.929810,70.356621 363.998749,65.507904 
	C364.117004,57.193680 364.158142,48.872189 363.915588,40.562965 
	C363.847839,38.242584 362.670929,35.954578 361.379395,33.164246 
z"/>
<path fill="#EBFFEB" opacity="1.000000" stroke="none" 
	d="
M455.049194,70.082130 
	C456.025940,68.943924 457.757568,67.755219 457.771149,66.547157 
	C457.819366,62.271950 457.072632,57.991768 457.038788,53.710220 
	C457.017334,50.998466 457.726349,48.280937 458.183044,45.030045 
	C459.357147,47.781715 460.910828,49.960964 461.096710,52.251240 
	C461.301331,54.771988 459.830933,57.395512 459.835205,59.973026 
	C459.842773,64.533142 458.088867,69.880859 464.336304,72.416580 
	C465.073456,72.715759 465.015839,74.973000 465.407593,76.673965 
	C460.997498,76.673965 457.222504,76.673965 451.755615,76.673965 
	C453.478607,74.136566 454.619446,72.456436 455.447021,70.433502 
	C455.133759,70.090698 455.016083,70.022758 455.049194,70.082130 
z"/>
<path fill="#09F109" opacity="1.000000" stroke="none" 
	d="
M464.794678,44.576988 
	C465.927887,46.937775 466.802490,48.943214 462.797668,48.898312 
	C462.920380,46.757111 463.028625,44.867809 463.172394,42.358517 
	C463.905121,43.314629 464.272400,43.793896 464.794678,44.576988 
z"/>
<path fill="#09F809" opacity="1.000000" stroke="none" 
	d="
M406.920715,36.790581 
	C407.052032,39.855743 407.230072,42.511631 407.099792,45.152306 
	C406.933563,48.522190 405.300964,50.891201 401.684631,51.056080 
	C397.758942,51.235058 396.038666,48.777821 395.682587,45.220558 
	C395.485382,43.250206 395.563782,41.248112 395.584625,39.261024 
	C395.618896,35.993538 396.725861,33.305962 400.203552,32.502636 
	C403.481903,31.745356 405.535706,33.514572 406.920715,36.790581 
M404.556732,38.304504 
	C403.336823,37.223278 402.116913,36.142052 400.897003,35.060818 
	C399.951172,36.453911 398.641602,37.733746 398.162567,39.272190 
	C397.690613,40.787880 397.621368,42.734440 398.178802,44.182751 
	C398.784821,45.757286 400.316345,46.975605 401.444336,48.349236 
	C402.549744,46.935184 404.051025,45.667408 404.643555,44.063854 
	C405.182251,42.605862 404.733215,40.782898 404.556732,38.304504 
z"/>
<path fill="#0EF00E" opacity="1.000000" stroke="none" 
	d="
M361.691101,33.407982 
	C362.670929,35.954578 363.847839,38.242584 363.915588,40.562965 
	C364.158142,48.872189 364.117004,57.193680 363.998749,65.507904 
	C363.929810,70.356621 361.715149,72.376648 357.358795,72.248253 
	C353.701874,72.140457 351.362579,69.922646 351.484222,66.727119 
	C351.850861,57.096279 351.444916,47.485493 351.518829,37.872734 
	C351.554840,33.186520 355.610840,31.654161 361.691101,33.407982 
M359.245422,69.388100 
	C362.327332,65.782867 362.241333,57.862942 360.122223,54.215084 
	C360.578369,47.974770 361.181458,43.486755 361.066315,39.017246 
	C361.031555,37.667942 359.004181,36.369961 357.889587,35.048458 
	C356.600281,36.288315 354.219086,37.530979 354.222260,38.767517 
	C354.232635,42.800766 355.119781,46.830894 355.653656,50.864338 
	C355.770935,51.750183 356.000244,52.670967 355.873505,53.530781 
	C355.306122,57.380096 354.464142,61.195278 354.043640,65.057877 
	C353.715240,68.074638 355.283051,69.753464 359.245422,69.388100 
z"/>
<path fill="#001200" opacity="1.000000" stroke="none" 
	d="
M404.638153,38.712658 
	C404.733215,40.782898 405.182251,42.605862 404.643555,44.063854 
	C404.051025,45.667408 402.549744,46.935184 401.444336,48.349236 
	C400.316345,46.975605 398.784821,45.757286 398.178802,44.182751 
	C397.621368,42.734440 397.690613,40.787880 398.162567,39.272190 
	C398.641602,37.733746 399.951172,36.453911 400.897003,35.060822 
	C402.116913,36.142052 403.336823,37.223278 404.638153,38.712658 
z"/>
<path fill="#000500" opacity="1.000000" stroke="none" 
	d="
M358.853973,69.508530 
	C355.283051,69.753464 353.715240,68.074638 354.043640,65.057877 
	C354.464142,61.195278 355.306122,57.380096 355.873505,53.530781 
	C356.000244,52.670967 355.770935,51.750183 355.653656,50.864338 
	C355.119781,46.830894 354.232635,42.800766 354.222260,38.767517 
	C354.219086,37.530979 356.600281,36.288315 357.889587,35.048462 
	C359.004181,36.369961 361.031555,37.667942 361.066315,39.017246 
	C361.181458,43.486755 360.578369,47.974770 360.122223,54.215084 
	C362.241333,57.862942 362.327332,65.782867 358.853973,69.508530 
z"/>
</svg>